{
  "accessors": [
    {
      "bufferView": 2,
      "componentType": 5126,
      "count": 37838,
      "max": [
        88.49163055419922,
        100.68556213378906,
        130.40023803710938
      ],
      "min": [
        -61.97093963623047,
        -184.07159423828125,
        -1.097252607345581
      ],
      "type": "VEC3"
    },
    {
      "bufferView": 2,
      "byteOffset": 454056,
      "componentType": 5126,
      "count": 37838,
      "max": [
        1.0,
        1.0,
        1.0
      ],
      "min": [
        -1.0,
        -1.0,
        -1.0
      ],
      "type": "VEC3"
    },
    {
      "bufferView": 3,
      "componentType": 5126,
      "count": 37838,
      "max": [
        1.0,
        1.0,
        1.0,
        1.0
      ],
      "min": [
        -1.0,
        -1.0,
        -1.0,
        -1.0
      ],
      "type": "VEC4"
    },
    {
      "bufferView": 1,
      "componentType": 5126,
      "count": 37838,
      "max": [
        0.98828125,
        0.9900054931640625
      ],
      "min": [
        0.0099945068359375,
        0.01025390625
      ],
      "type": "VEC2"
    },
    {
      "bufferView": 1,
      "byteOffset": 302704,
      "componentType": 5126,
      "count": 37838,
      "max": [
        0.98974609375,
        0.9900054931640625
      ],
      "min": [
        0.0099945068359375,
        0.01025390625
      ],
      "type": "VEC2"
    },
    {
      "bufferView": 1,
      "byteOffset": 605408,
      "componentType": 5126,
      "count": 37838,
      "max": [
        0.9814453125,
        0.9919357299804688
      ],
      "min": [
        0.00806427001953125,
        0.03955078125
      ],
      "type": "VEC2"
    },
    {
      "bufferView": 1,
      "byteOffset": 908112,
      "componentType": 5126,
      "count": 37838,
      "max": [
        0.98828125,
        0.9900054931640625
      ],
      "min": [
        0.0099945068359375,
        0.01025390625
      ],
      "type": "VEC2"
    },
    {
      "bufferView": 0,
      "componentType": 5125,
      "count": 139068,
      "type": "SCALAR"
    },
    {
      "bufferView": 2,
      "byteOffset": 908112,
      "componentType": 5126,
      "count": 863,
      "max": [
        484.71807861328125,
        511.9797058105469,
        596.9952392578125
      ],
      "min": [
        -715.2819213867188,
        -688.020263671875,
        -3.0047607421875
      ],
      "type": "VEC3"
    },
    {
      "bufferView": 2,
      "byteOffset": 918468,
      "componentType": 5126,
      "count": 863,
      "max": [
        0.9999690055847168,
        1.0,
        0.9997521042823792
      ],
      "min": [
        -1.0,
        -0.9999690055847168,
        -1.0
      ],
      "type": "VEC3"
    },
    {
      "bufferView": 1,
      "byteOffset": 1210816,
      "componentType": 5126,
      "count": 863,
      "max": [
        1.013671875,
        1.03314208984375
      ],
      "min": [
        -0.024871826171875,
        -0.013671875
      ],
      "type": "VEC2"
    },
    {
      "bufferView": 1,
      "byteOffset": 1217720,
      "componentType": 5126,
      "count": 863,
      "max": [
        1.0,
        2.0
      ],
      "min": [
        -1.0,
        0.0
      ],
      "type": "VEC2"
    },
    {
      "bufferView": 1,
      "byteOffset": 1224624,
      "componentType": 5126,
      "count": 863,
      "max": [
        0.85107421875,
        0.9919357299804688
      ],
      "min": [
        0.00806427001953125,
        0.55615234375
      ],
      "type": "VEC2"
    },
    {
      "bufferView": 0,
      "byteOffset": 556272,
      "componentType": 5125,
      "count": 900,
      "type": "SCALAR"
    }
  ],
  "asset": {
    "extras": {
      "author": "IPmovie (https://sketchfab.com/IPmovie)",
      "license": "CC-BY-4.0 (http://creativecommons.org/licenses/by/4.0/)",
      "source": "https://sketchfab.com/3d-models/fitness-equipment-b7bfb774ac3646fb9c37697b4e074945",
      "title": "Fitness Equipment"
    },
    "generator": "Sketchfab-14.56.0",
    "version": "2.0"
  },
  "bufferViews": [
    {
      "buffer": 0,
      "byteLength": 559872,
      "name": "floatBufferViews",
      "target": 34963
    },
    {
      "buffer": 0,
      "byteLength": 1231528,
      "byteOffset": 559872,
      "byteStride": 8,
      "name": "floatBufferViews",
      "target": 34962
    },
    {
      "buffer": 0,
      "byteLength": 928824,
      "byteOffset": 1791400,
      "byteStride": 12,
      "name": "floatBufferViews",
      "target": 34962
    },
    {
      "buffer": 0,
      "byteLength": 605408,
      "byteOffset": 2720224,
      "byteStride": 16,
      "name": "floatBufferViews",
      "target": 34962
    }
  ],
  "buffers": [
    {
      "byteLength": 3325632,
      "uri": "scene.bin"
    }
  ],
  "extensionsUsed": [
    "KHR_materials_specular"
  ],
  "images": [
    {
      "uri": "textures/M_HomeGym_baseColor.png"
    },
    {
      "uri": "textures/M_HomeGym_metallicRoughness.png"
    },
    {
      "uri": "textures/M_HomeGym_normal.png"
    },
    {
      "uri": "textures/M_HomeGym_specularf0.png"
    },
    {
      "uri": "textures/M_ShotCube_metallicRoughness.png"
    }
  ],
  "materials": [
    {
      "doubleSided": true,
      "extensions": {
        "KHR_materials_specular": {
          "specularColorFactor": [
            1.0,
            1.0,
            1.0
          ],
          "specularFactor": 1.0,
          "specularTexture": {
            "index": 3
          }
        }
      },
      "name": "M_HomeGym",
      "normalTexture": {
        "index": 2
      },
      "pbrMetallicRoughness": {
        "baseColorTexture": {
          "index": 0
        },
        "metallicFactor": 0.0,
        "metallicRoughnessTexture": {
          "index": 1
        }
      }
    },
    {
      "alphaMode": "BLEND",
      "doubleSided": true,
      "name": "M_ShotCube",
      "pbrMetallicRoughness": {
        "baseColorFactor": [
          1.0,
          1.0,
          1.0,
          0.0
        ],
        "baseColorTexture": {
          "index": 0
        },
        "metallicRoughnessTexture": {
          "index": 4
        },
        "roughnessFactor": 0.6
      }
    }
  ],
  "meshes": [
    {
      "name": "StaticMesh_M_HomeGym_0",
      "primitives": [
        {
          "attributes": {
            "NORMAL": 1,
            "POSITION": 0,
            "TANGENT": 2,
            "TEXCOORD_0": 3,
            "TEXCOORD_1": 4,
            "TEXCOORD_2": 5,
            "TEXCOORD_3": 6
          },
          "indices": 7,
          "material": 0,
          "mode": 4
        }
      ]
    },
    {
      "name": "StaticMesh_M_ShotCube_0",
      "primitives": [
        {
          "attributes": {
            "NORMAL": 9,
            "POSITION": 8,
            "TEXCOORD_0": 10,
            "TEXCOORD_1": 11,
            "TEXCOORD_2": 12
          },
          "indices": 13,
          "material": 1,
          "mode": 4
        }
      ]
    }
  ],
  "nodes": [
    {
      "children": [
        1
      ],
      "matrix": [
        1.0,
        0.0,
        0.0,
        0.0,
        0.0,
        -5.053215392444312e-16,
        1.0,
        0.0,
        0.0,
        -1.0,
        -5.053215392444312e-16,
        0.0,
        0.0,
        0.0,
        0.0,
        1.0
      ],
      "name": "Sketchfab_model"
    },
    {
      "children": [
        2
      ],
      "matrix": [
        0.009999999776482582,
        0.0,
        0.0,
        0.0,
        0.0,
        -0.009999999776482582,
        0.0,
        0.0,
        0.0,
        0.0,
        -0.009999999776482582,
        0.0,
        0.0,
        0.0,
        0.0,
        1.0
      ],
      "name": "FBX.FBX"
    },
    {
      "children": [
        3
      ],
      "name": "RootNode"
    },
    {
      "children": [
        4,
        5
      ],
      "name": "StaticMesh"
    },
    {
      "mesh": 0,
      "name": "StaticMesh_M_HomeGym_0"
    },
    {
      "mesh": 1,
      "name": "StaticMesh_M_ShotCube_0"
    }
  ],
  "samplers": [
    {
      "magFilter": 9729,
      "minFilter": 9987,
      "wrapS": 10497,
      "wrapT": 10497
    }
  ],
  "scene": 0,
  "scenes": [
    {
      "name": "Sketchfab_Scene",
      "nodes": [
        0
      ]
    }
  ],
  "textures": [
    {
      "sampler": 0,
      "source": 0
    },
    {
      "sampler": 0,
      "source": 1
    },
    {
      "sampler": 0,
      "source": 2
    },
    {
      "sampler": 0,
      "source": 3
    },
    {
      "sampler": 0,
      "source": 4
    }
  ]
}
